<mxfile host="Electron" agent="Mozilla/5.0 (X11; Linux x86_64) AppleWebKit/537.36 (KHTML, like Gecko) draw.io/28.1.2 Chrome/138.0.7204.243 Electron/37.4.0 Safari/537.36" version="28.1.2">
  <diagram name="Page-1" id="slK6UrTODrSomQGftDzX">
    <mxGraphModel dx="1106" dy="1203" grid="1" gridSize="10" guides="1" tooltips="1" connect="1" arrows="1" fold="1" page="1" pageScale="1" pageWidth="850" pageHeight="1100" math="0" shadow="0">
      <root>
        <mxCell id="0" />
        <mxCell id="1" parent="0" />
        <mxCell id="Q6Dn07IOKBV6iHUPWCAA-1" value="" style="rounded=0;whiteSpace=wrap;html=1;" parent="1" vertex="1">
          <mxGeometry x="470" y="60" width="320" height="80" as="geometry" />
        </mxCell>
        <mxCell id="Q6Dn07IOKBV6iHUPWCAA-2" value="FMK" style="rounded=0;whiteSpace=wrap;html=1;" parent="1" vertex="1">
          <mxGeometry x="300" y="70" width="120" height="60" as="geometry" />
        </mxCell>
        <mxCell id="Q6Dn07IOKBV6iHUPWCAA-3" value="" style="endArrow=none;html=1;rounded=0;entryX=0.5;entryY=1;entryDx=0;entryDy=0;" parent="1" source="Q6Dn07IOKBV6iHUPWCAA-68" target="Q6Dn07IOKBV6iHUPWCAA-2" edge="1">
          <mxGeometry width="50" height="50" relative="1" as="geometry">
            <mxPoint x="360" y="970" as="sourcePoint" />
            <mxPoint x="540" y="490" as="targetPoint" />
          </mxGeometry>
        </mxCell>
        <mxCell id="Q6Dn07IOKBV6iHUPWCAA-4" value="ITUKT-API" style="rounded=0;whiteSpace=wrap;html=1;" parent="1" vertex="1">
          <mxGeometry x="480" y="70" width="120" height="60" as="geometry" />
        </mxCell>
        <mxCell id="Q6Dn07IOKBV6iHUPWCAA-5" value="" style="endArrow=none;html=1;rounded=0;entryX=0.5;entryY=1;entryDx=0;entryDy=0;" parent="1" source="Q6Dn07IOKBV6iHUPWCAA-70" target="Q6Dn07IOKBV6iHUPWCAA-4" edge="1">
          <mxGeometry width="50" height="50" relative="1" as="geometry">
            <mxPoint x="539.66" y="970" as="sourcePoint" />
            <mxPoint x="539.66" y="140" as="targetPoint" />
          </mxGeometry>
        </mxCell>
        <mxCell id="Q6Dn07IOKBV6iHUPWCAA-6" value="" style="endArrow=none;html=1;rounded=0;entryX=0.5;entryY=1;entryDx=0;entryDy=0;entryPerimeter=0;" parent="1" source="Q6Dn07IOKBV6iHUPWCAA-60" target="Q6Dn07IOKBV6iHUPWCAA-7" edge="1">
          <mxGeometry width="50" height="50" relative="1" as="geometry">
            <mxPoint x="850" y="970" as="sourcePoint" />
            <mxPoint x="850" y="140" as="targetPoint" />
          </mxGeometry>
        </mxCell>
        <mxCell id="Q6Dn07IOKBV6iHUPWCAA-7" value="Stamdata" style="strokeWidth=2;html=1;shape=mxgraph.flowchart.database;whiteSpace=wrap;fillColor=default;" parent="1" vertex="1">
          <mxGeometry x="820" y="70" width="60" height="60" as="geometry" />
        </mxCell>
        <mxCell id="Q6Dn07IOKBV6iHUPWCAA-8" value="" style="endArrow=none;html=1;rounded=0;entryX=0.5;entryY=1;entryDx=0;entryDy=0;entryPerimeter=0;" parent="1" source="Q6Dn07IOKBV6iHUPWCAA-58" target="Q6Dn07IOKBV6iHUPWCAA-9" edge="1">
          <mxGeometry width="50" height="50" relative="1" as="geometry">
            <mxPoint x="970" y="970" as="sourcePoint" />
            <mxPoint x="970" y="140" as="targetPoint" />
          </mxGeometry>
        </mxCell>
        <mxCell id="Q6Dn07IOKBV6iHUPWCAA-9" value="ITUKT-DB" style="strokeWidth=2;html=1;shape=mxgraph.flowchart.database;whiteSpace=wrap;fillColor=default;" parent="1" vertex="1">
          <mxGeometry x="940" y="70" width="60" height="60" as="geometry" />
        </mxCell>
        <mxCell id="Q6Dn07IOKBV6iHUPWCAA-10" value="" style="endArrow=classic;html=1;rounded=0;exitX=1;exitY=0.25;exitDx=0;exitDy=0;" parent="1" source="Q6Dn07IOKBV6iHUPWCAA-79" edge="1">
          <mxGeometry width="50" height="50" relative="1" as="geometry">
            <mxPoint x="380" y="350" as="sourcePoint" />
            <mxPoint x="540" y="340" as="targetPoint" />
          </mxGeometry>
        </mxCell>
        <mxCell id="Q6Dn07IOKBV6iHUPWCAA-11" value="" style="endArrow=classic;html=1;rounded=0;entryX=0;entryY=0.25;entryDx=0;entryDy=0;exitX=1.04;exitY=0.111;exitDx=0;exitDy=0;exitPerimeter=0;" parent="1" source="Q6Dn07IOKBV6iHUPWCAA-81" target="Q6Dn07IOKBV6iHUPWCAA-60" edge="1">
          <mxGeometry width="50" height="50" relative="1" as="geometry">
            <mxPoint x="715" y="170" as="sourcePoint" />
            <mxPoint x="850" y="170" as="targetPoint" />
          </mxGeometry>
        </mxCell>
        <mxCell id="Q6Dn07IOKBV6iHUPWCAA-12" value="Fremsøg stamdata" style="edgeLabel;html=1;align=center;verticalAlign=middle;resizable=0;points=[];" parent="Q6Dn07IOKBV6iHUPWCAA-11" vertex="1" connectable="0">
          <mxGeometry x="-0.0133" y="-1" relative="1" as="geometry">
            <mxPoint as="offset" />
          </mxGeometry>
        </mxCell>
        <mxCell id="Q6Dn07IOKBV6iHUPWCAA-13" value="" style="endArrow=classic;html=1;rounded=0;entryX=0;entryY=0.25;entryDx=0;entryDy=0;exitX=0.971;exitY=0.661;exitDx=0;exitDy=0;exitPerimeter=0;" parent="1" source="Q6Dn07IOKBV6iHUPWCAA-81" target="Q6Dn07IOKBV6iHUPWCAA-58" edge="1">
          <mxGeometry width="50" height="50" relative="1" as="geometry">
            <mxPoint x="715" y="240" as="sourcePoint" />
            <mxPoint x="960" y="250" as="targetPoint" />
          </mxGeometry>
        </mxCell>
        <mxCell id="Q6Dn07IOKBV6iHUPWCAA-14" value="Fremsøg klausuler" style="edgeLabel;html=1;align=center;verticalAlign=middle;resizable=0;points=[];" parent="Q6Dn07IOKBV6iHUPWCAA-13" vertex="1" connectable="0">
          <mxGeometry x="-0.1778" y="-1" relative="1" as="geometry">
            <mxPoint x="29" as="offset" />
          </mxGeometry>
        </mxCell>
        <mxCell id="Q6Dn07IOKBV6iHUPWCAA-15" value="" style="endArrow=classic;html=1;rounded=0;dashed=1;exitX=0;exitY=0.75;exitDx=0;exitDy=0;entryX=1.017;entryY=0.892;entryDx=0;entryDy=0;entryPerimeter=0;" parent="1" source="Q6Dn07IOKBV6iHUPWCAA-58" target="Q6Dn07IOKBV6iHUPWCAA-81" edge="1">
          <mxGeometry width="50" height="50" relative="1" as="geometry">
            <mxPoint x="950" y="280" as="sourcePoint" />
            <mxPoint x="715" y="270" as="targetPoint" />
          </mxGeometry>
        </mxCell>
        <mxCell id="Q6Dn07IOKBV6iHUPWCAA-16" value="Klausuler" style="edgeLabel;html=1;align=center;verticalAlign=middle;resizable=0;points=[];" parent="Q6Dn07IOKBV6iHUPWCAA-15" vertex="1" connectable="0">
          <mxGeometry x="0.0593" y="2" relative="1" as="geometry">
            <mxPoint x="23" as="offset" />
          </mxGeometry>
        </mxCell>
        <mxCell id="Q6Dn07IOKBV6iHUPWCAA-17" value="" style="endArrow=classic;html=1;rounded=0;dashed=1;exitX=0;exitY=0.75;exitDx=0;exitDy=0;entryX=0.994;entryY=0.342;entryDx=0;entryDy=0;entryPerimeter=0;" parent="1" source="Q6Dn07IOKBV6iHUPWCAA-60" target="Q6Dn07IOKBV6iHUPWCAA-81" edge="1">
          <mxGeometry width="50" height="50" relative="1" as="geometry">
            <mxPoint x="830" y="210" as="sourcePoint" />
            <mxPoint x="715" y="200" as="targetPoint" />
          </mxGeometry>
        </mxCell>
        <mxCell id="Q6Dn07IOKBV6iHUPWCAA-18" value="Stamdata" style="edgeLabel;html=1;align=center;verticalAlign=middle;resizable=0;points=[];" parent="Q6Dn07IOKBV6iHUPWCAA-17" vertex="1" connectable="0">
          <mxGeometry x="0.04" y="4" relative="1" as="geometry">
            <mxPoint y="-4" as="offset" />
          </mxGeometry>
        </mxCell>
        <mxCell id="Q6Dn07IOKBV6iHUPWCAA-19" value="" style="endArrow=classic;html=1;rounded=0;dashed=1;entryX=1;entryY=0.876;entryDx=0;entryDy=0;entryPerimeter=0;" parent="1" target="Q6Dn07IOKBV6iHUPWCAA-68" edge="1">
          <mxGeometry width="50" height="50" relative="1" as="geometry">
            <mxPoint x="540" y="500" as="sourcePoint" />
            <mxPoint x="400" y="490" as="targetPoint" />
          </mxGeometry>
        </mxCell>
        <mxCell id="Q6Dn07IOKBV6iHUPWCAA-20" value="400: Valideringsfejl" style="edgeLabel;html=1;align=center;verticalAlign=middle;resizable=0;points=[];" parent="Q6Dn07IOKBV6iHUPWCAA-19" vertex="1" connectable="0">
          <mxGeometry x="0.1333" relative="1" as="geometry">
            <mxPoint x="12" as="offset" />
          </mxGeometry>
        </mxCell>
        <mxCell id="Q6Dn07IOKBV6iHUPWCAA-21" value="" style="endArrow=none;html=1;rounded=0;entryX=0.5;entryY=1;entryDx=0;entryDy=0;" parent="1" edge="1">
          <mxGeometry width="50" height="50" relative="1" as="geometry">
            <mxPoint x="50" y="910" as="sourcePoint" />
            <mxPoint x="49.5" y="140" as="targetPoint" />
          </mxGeometry>
        </mxCell>
        <mxCell id="Q6Dn07IOKBV6iHUPWCAA-22" value="" style="endArrow=classic;html=1;rounded=0;entryX=0.138;entryY=0.088;entryDx=0;entryDy=0;entryPerimeter=0;" parent="1" target="Q6Dn07IOKBV6iHUPWCAA-68" edge="1">
          <mxGeometry width="50" height="50" relative="1" as="geometry">
            <mxPoint x="180" y="300" as="sourcePoint" />
            <mxPoint x="320" y="310" as="targetPoint" />
          </mxGeometry>
        </mxCell>
        <mxCell id="Q6Dn07IOKBV6iHUPWCAA-23" value="Oprettelse af ordination" style="edgeLabel;html=1;align=center;verticalAlign=middle;resizable=0;points=[];" parent="Q6Dn07IOKBV6iHUPWCAA-22" vertex="1" connectable="0">
          <mxGeometry x="-0.1333" y="2" relative="1" as="geometry">
            <mxPoint as="offset" />
          </mxGeometry>
        </mxCell>
        <mxCell id="Q6Dn07IOKBV6iHUPWCAA-24" value="EPJ" style="rounded=0;whiteSpace=wrap;html=1;" parent="1" vertex="1">
          <mxGeometry x="120" y="70" width="120" height="60" as="geometry" />
        </mxCell>
        <mxCell id="Q6Dn07IOKBV6iHUPWCAA-25" value="" style="endArrow=none;html=1;rounded=0;entryX=0.5;entryY=1;entryDx=0;entryDy=0;" parent="1" source="UxIAdIcZRyHAeDXU_IEO-5" target="Q6Dn07IOKBV6iHUPWCAA-24" edge="1">
          <mxGeometry width="50" height="50" relative="1" as="geometry">
            <mxPoint x="180" y="970" as="sourcePoint" />
            <mxPoint x="360" y="490" as="targetPoint" />
          </mxGeometry>
        </mxCell>
        <mxCell id="Q6Dn07IOKBV6iHUPWCAA-26" value="" style="endArrow=classic;html=1;rounded=0;entryX=-0.1;entryY=0.07;entryDx=0;entryDy=0;entryPerimeter=0;" parent="1" edge="1" target="UxIAdIcZRyHAeDXU_IEO-5">
          <mxGeometry width="50" height="50" relative="1" as="geometry">
            <mxPoint x="50" y="270" as="sourcePoint" />
            <mxPoint x="100" y="300" as="targetPoint" />
          </mxGeometry>
        </mxCell>
        <mxCell id="Q6Dn07IOKBV6iHUPWCAA-27" value="Ordination" style="edgeLabel;html=1;align=center;verticalAlign=middle;resizable=0;points=[];" parent="Q6Dn07IOKBV6iHUPWCAA-26" vertex="1" connectable="0">
          <mxGeometry x="-0.0923" y="2" relative="1" as="geometry">
            <mxPoint as="offset" />
          </mxGeometry>
        </mxCell>
        <mxCell id="Q6Dn07IOKBV6iHUPWCAA-28" value="" style="endArrow=classic;html=1;rounded=0;dashed=1;exitX=0.057;exitY=0.924;exitDx=0;exitDy=0;exitPerimeter=0;" parent="1" source="Q6Dn07IOKBV6iHUPWCAA-72" edge="1">
          <mxGeometry width="50" height="50" relative="1" as="geometry">
            <mxPoint x="310" y="830" as="sourcePoint" />
            <mxPoint x="185" y="850" as="targetPoint" />
          </mxGeometry>
        </mxCell>
        <mxCell id="Q6Dn07IOKBV6iHUPWCAA-29" value="OK" style="edgeLabel;html=1;align=center;verticalAlign=middle;resizable=0;points=[];" parent="Q6Dn07IOKBV6iHUPWCAA-28" vertex="1" connectable="0">
          <mxGeometry x="0.0222" y="-1" relative="1" as="geometry">
            <mxPoint y="1" as="offset" />
          </mxGeometry>
        </mxCell>
        <mxCell id="Q6Dn07IOKBV6iHUPWCAA-30" value="ITUKT-cache" style="rounded=0;whiteSpace=wrap;html=1;" parent="1" vertex="1">
          <mxGeometry x="655" y="70" width="120" height="60" as="geometry" />
        </mxCell>
        <mxCell id="Q6Dn07IOKBV6iHUPWCAA-31" value="" style="endArrow=none;html=1;rounded=0;entryX=0.5;entryY=1;entryDx=0;entryDy=0;" parent="1" source="Q6Dn07IOKBV6iHUPWCAA-81" target="Q6Dn07IOKBV6iHUPWCAA-30" edge="1">
          <mxGeometry width="50" height="50" relative="1" as="geometry">
            <mxPoint x="715" y="970" as="sourcePoint" />
            <mxPoint x="715" y="140" as="targetPoint" />
          </mxGeometry>
        </mxCell>
        <mxCell id="Q6Dn07IOKBV6iHUPWCAA-32" value="" style="endArrow=classic;html=1;rounded=0;entryX=0;entryY=0.25;entryDx=0;entryDy=0;exitX=1.033;exitY=0.181;exitDx=0;exitDy=0;exitPerimeter=0;" parent="1" source="Q6Dn07IOKBV6iHUPWCAA-79" target="Q6Dn07IOKBV6iHUPWCAA-62" edge="1">
          <mxGeometry width="50" height="50" relative="1" as="geometry">
            <mxPoint x="540" y="360" as="sourcePoint" />
            <mxPoint x="680" y="360" as="targetPoint" />
          </mxGeometry>
        </mxCell>
        <mxCell id="Q6Dn07IOKBV6iHUPWCAA-33" value="Read: stamdata" style="edgeLabel;html=1;align=center;verticalAlign=middle;resizable=0;points=[];" parent="Q6Dn07IOKBV6iHUPWCAA-32" vertex="1" connectable="0">
          <mxGeometry x="-0.1111" y="4" relative="1" as="geometry">
            <mxPoint y="4" as="offset" />
          </mxGeometry>
        </mxCell>
        <mxCell id="Q6Dn07IOKBV6iHUPWCAA-34" value="" style="endArrow=classic;html=1;rounded=0;entryX=0;entryY=0.25;entryDx=0;entryDy=0;exitX=0.933;exitY=0.609;exitDx=0;exitDy=0;exitPerimeter=0;" parent="1" source="Q6Dn07IOKBV6iHUPWCAA-79" target="Q6Dn07IOKBV6iHUPWCAA-76" edge="1">
          <mxGeometry width="50" height="50" relative="1" as="geometry">
            <mxPoint x="540" y="440" as="sourcePoint" />
            <mxPoint x="680" y="430" as="targetPoint" />
          </mxGeometry>
        </mxCell>
        <mxCell id="Q6Dn07IOKBV6iHUPWCAA-35" value="Read: klausuler" style="edgeLabel;html=1;align=center;verticalAlign=middle;resizable=0;points=[];" parent="Q6Dn07IOKBV6iHUPWCAA-34" vertex="1" connectable="0">
          <mxGeometry x="-0.1111" y="4" relative="1" as="geometry">
            <mxPoint y="4" as="offset" />
          </mxGeometry>
        </mxCell>
        <mxCell id="Q6Dn07IOKBV6iHUPWCAA-36" value="" style="endArrow=classic;html=1;rounded=0;dashed=1;exitX=0;exitY=0.75;exitDx=0;exitDy=0;entryX=0.833;entryY=0.765;entryDx=0;entryDy=0;entryPerimeter=0;" parent="1" source="Q6Dn07IOKBV6iHUPWCAA-76" target="Q6Dn07IOKBV6iHUPWCAA-79" edge="1">
          <mxGeometry width="50" height="50" relative="1" as="geometry">
            <mxPoint x="660" y="490" as="sourcePoint" />
            <mxPoint x="540" y="470" as="targetPoint" />
          </mxGeometry>
        </mxCell>
        <mxCell id="Q6Dn07IOKBV6iHUPWCAA-37" value="Klausuler" style="edgeLabel;html=1;align=center;verticalAlign=middle;resizable=0;points=[];" parent="Q6Dn07IOKBV6iHUPWCAA-36" vertex="1" connectable="0">
          <mxGeometry x="-0.1778" y="-1" relative="1" as="geometry">
            <mxPoint x="-20" as="offset" />
          </mxGeometry>
        </mxCell>
        <mxCell id="Q6Dn07IOKBV6iHUPWCAA-38" value="" style="endArrow=classic;html=1;rounded=0;dashed=1;exitX=0;exitY=0.75;exitDx=0;exitDy=0;entryX=1;entryY=0.333;entryDx=0;entryDy=0;entryPerimeter=0;" parent="1" source="Q6Dn07IOKBV6iHUPWCAA-62" target="Q6Dn07IOKBV6iHUPWCAA-79" edge="1">
          <mxGeometry width="50" height="50" relative="1" as="geometry">
            <mxPoint x="660" y="400" as="sourcePoint" />
            <mxPoint x="540" y="380" as="targetPoint" />
          </mxGeometry>
        </mxCell>
        <mxCell id="Q6Dn07IOKBV6iHUPWCAA-39" value="Stamdata" style="edgeLabel;html=1;align=center;verticalAlign=middle;resizable=0;points=[];" parent="Q6Dn07IOKBV6iHUPWCAA-38" vertex="1" connectable="0">
          <mxGeometry x="-0.1778" y="-1" relative="1" as="geometry">
            <mxPoint x="-20" as="offset" />
          </mxGeometry>
        </mxCell>
        <mxCell id="Q6Dn07IOKBV6iHUPWCAA-40" value="" style="endArrow=none;dashed=1;html=1;strokeWidth=3;rounded=0;" parent="1" edge="1">
          <mxGeometry width="50" height="50" relative="1" as="geometry">
            <mxPoint x="460" y="940" as="sourcePoint" />
            <mxPoint x="460" y="40" as="targetPoint" />
          </mxGeometry>
        </mxCell>
        <mxCell id="Q6Dn07IOKBV6iHUPWCAA-41" value="" style="endArrow=classic;html=1;rounded=0;exitX=0.914;exitY=0.222;exitDx=0;exitDy=0;exitPerimeter=0;" parent="1" source="Q6Dn07IOKBV6iHUPWCAA-72" edge="1">
          <mxGeometry width="50" height="50" relative="1" as="geometry">
            <mxPoint x="390" y="690" as="sourcePoint" />
            <mxPoint x="540" y="660" as="targetPoint" />
          </mxGeometry>
        </mxCell>
        <mxCell id="Q6Dn07IOKBV6iHUPWCAA-42" value="Post /2025/08/01/validate" style="edgeLabel;html=1;align=center;verticalAlign=middle;resizable=0;points=[];" parent="Q6Dn07IOKBV6iHUPWCAA-41" vertex="1" connectable="0">
          <mxGeometry x="-0.1111" y="4" relative="1" as="geometry">
            <mxPoint y="4" as="offset" />
          </mxGeometry>
        </mxCell>
        <mxCell id="Q6Dn07IOKBV6iHUPWCAA-43" value="" style="endArrow=classic;html=1;rounded=0;entryX=0;entryY=0.078;entryDx=0;entryDy=0;entryPerimeter=0;" parent="1" target="Q6Dn07IOKBV6iHUPWCAA-72" edge="1">
          <mxGeometry width="50" height="50" relative="1" as="geometry">
            <mxPoint x="180" y="620" as="sourcePoint" />
            <mxPoint x="320" y="650" as="targetPoint" />
          </mxGeometry>
        </mxCell>
        <mxCell id="Q6Dn07IOKBV6iHUPWCAA-44" value="Oprettelse af ordination" style="edgeLabel;html=1;align=center;verticalAlign=middle;resizable=0;points=[];" parent="Q6Dn07IOKBV6iHUPWCAA-43" vertex="1" connectable="0">
          <mxGeometry x="-0.1333" y="2" relative="1" as="geometry">
            <mxPoint as="offset" />
          </mxGeometry>
        </mxCell>
        <mxCell id="Q6Dn07IOKBV6iHUPWCAA-45" value="" style="endArrow=classic;html=1;rounded=0;entryX=0.031;entryY=0.065;entryDx=0;entryDy=0;entryPerimeter=0;" parent="1" target="Q6Dn07IOKBV6iHUPWCAA-74" edge="1">
          <mxGeometry width="50" height="50" relative="1" as="geometry">
            <mxPoint x="50" y="590" as="sourcePoint" />
            <mxPoint x="150" y="620" as="targetPoint" />
          </mxGeometry>
        </mxCell>
        <mxCell id="Q6Dn07IOKBV6iHUPWCAA-46" value="Ordination" style="edgeLabel;html=1;align=center;verticalAlign=middle;resizable=0;points=[];" parent="Q6Dn07IOKBV6iHUPWCAA-45" vertex="1" connectable="0">
          <mxGeometry x="-0.0923" y="2" relative="1" as="geometry">
            <mxPoint as="offset" />
          </mxGeometry>
        </mxCell>
        <mxCell id="Q6Dn07IOKBV6iHUPWCAA-47" value="" style="endArrow=classic;html=1;rounded=0;entryX=0;entryY=0.25;entryDx=0;entryDy=0;exitX=1.088;exitY=0.179;exitDx=0;exitDy=0;exitPerimeter=0;" parent="1" source="Q6Dn07IOKBV6iHUPWCAA-70" target="Q6Dn07IOKBV6iHUPWCAA-64" edge="1">
          <mxGeometry width="50" height="50" relative="1" as="geometry">
            <mxPoint x="715.8800000000001" y="669.0100000000002" as="sourcePoint" />
            <mxPoint x="565.8800000000001" y="669.0100000000002" as="targetPoint" />
          </mxGeometry>
        </mxCell>
        <mxCell id="Q6Dn07IOKBV6iHUPWCAA-48" value="Read: stamdata" style="edgeLabel;html=1;align=center;verticalAlign=middle;resizable=0;points=[];" parent="Q6Dn07IOKBV6iHUPWCAA-47" vertex="1" connectable="0">
          <mxGeometry x="-0.1111" y="4" relative="1" as="geometry">
            <mxPoint y="4" as="offset" />
          </mxGeometry>
        </mxCell>
        <mxCell id="Q6Dn07IOKBV6iHUPWCAA-49" value="" style="endArrow=classic;html=1;rounded=0;entryX=0;entryY=0.25;entryDx=0;entryDy=0;exitX=1.103;exitY=0.604;exitDx=0;exitDy=0;exitPerimeter=0;" parent="1" source="Q6Dn07IOKBV6iHUPWCAA-70" target="Q6Dn07IOKBV6iHUPWCAA-66" edge="1">
          <mxGeometry width="50" height="50" relative="1" as="geometry">
            <mxPoint x="716.0300000000007" y="750.3533333333335" as="sourcePoint" />
            <mxPoint x="576.0300000000007" y="760.3533333333335" as="targetPoint" />
          </mxGeometry>
        </mxCell>
        <mxCell id="Q6Dn07IOKBV6iHUPWCAA-50" value="Read: klausuler" style="edgeLabel;html=1;align=center;verticalAlign=middle;resizable=0;points=[];" parent="Q6Dn07IOKBV6iHUPWCAA-49" vertex="1" connectable="0">
          <mxGeometry x="-0.1111" y="4" relative="1" as="geometry">
            <mxPoint y="4" as="offset" />
          </mxGeometry>
        </mxCell>
        <mxCell id="Q6Dn07IOKBV6iHUPWCAA-51" value="" style="endArrow=classic;html=1;rounded=0;dashed=1;exitX=0;exitY=0.75;exitDx=0;exitDy=0;entryX=1.023;entryY=0.762;entryDx=0;entryDy=0;entryPerimeter=0;" parent="1" source="Q6Dn07IOKBV6iHUPWCAA-66" target="Q6Dn07IOKBV6iHUPWCAA-70" edge="1">
          <mxGeometry width="50" height="50" relative="1" as="geometry">
            <mxPoint x="595.2300000000005" y="790.3933333333334" as="sourcePoint" />
            <mxPoint x="685.2300000000005" y="770.3933333333334" as="targetPoint" />
          </mxGeometry>
        </mxCell>
        <mxCell id="Q6Dn07IOKBV6iHUPWCAA-52" value="Klausuler" style="edgeLabel;html=1;align=center;verticalAlign=middle;resizable=0;points=[];" parent="Q6Dn07IOKBV6iHUPWCAA-51" vertex="1" connectable="0">
          <mxGeometry x="-0.1778" y="-1" relative="1" as="geometry">
            <mxPoint x="-20" as="offset" />
          </mxGeometry>
        </mxCell>
        <mxCell id="Q6Dn07IOKBV6iHUPWCAA-53" value="" style="endArrow=classic;html=1;rounded=0;dashed=1;exitX=0;exitY=0.75;exitDx=0;exitDy=0;entryX=1;entryY=0.344;entryDx=0;entryDy=0;entryPerimeter=0;" parent="1" source="Q6Dn07IOKBV6iHUPWCAA-64" target="Q6Dn07IOKBV6iHUPWCAA-70" edge="1">
          <mxGeometry width="50" height="50" relative="1" as="geometry">
            <mxPoint x="535" y="710.833333333333" as="sourcePoint" />
            <mxPoint x="695" y="700.833333333333" as="targetPoint" />
          </mxGeometry>
        </mxCell>
        <mxCell id="Q6Dn07IOKBV6iHUPWCAA-54" value="Stamdata" style="edgeLabel;html=1;align=center;verticalAlign=middle;resizable=0;points=[];" parent="Q6Dn07IOKBV6iHUPWCAA-53" vertex="1" connectable="0">
          <mxGeometry x="-0.1778" y="-1" relative="1" as="geometry">
            <mxPoint x="-20" as="offset" />
          </mxGeometry>
        </mxCell>
        <mxCell id="Q6Dn07IOKBV6iHUPWCAA-55" value="" style="endArrow=classic;html=1;rounded=0;dashed=1;entryX=1.029;entryY=0.814;entryDx=0;entryDy=0;entryPerimeter=0;" parent="1" target="Q6Dn07IOKBV6iHUPWCAA-72" edge="1">
          <mxGeometry width="50" height="50" relative="1" as="geometry">
            <mxPoint x="540" y="820" as="sourcePoint" />
            <mxPoint x="390" y="840" as="targetPoint" />
          </mxGeometry>
        </mxCell>
        <mxCell id="Q6Dn07IOKBV6iHUPWCAA-56" value="200: Succes" style="edgeLabel;html=1;align=center;verticalAlign=middle;resizable=0;points=[];" parent="Q6Dn07IOKBV6iHUPWCAA-55" vertex="1" connectable="0">
          <mxGeometry x="0.1333" relative="1" as="geometry">
            <mxPoint x="12" as="offset" />
          </mxGeometry>
        </mxCell>
        <mxCell id="Q6Dn07IOKBV6iHUPWCAA-57" value="" style="endArrow=none;html=1;rounded=0;entryX=0.5;entryY=1;entryDx=0;entryDy=0;" parent="1" target="Q6Dn07IOKBV6iHUPWCAA-58" edge="1">
          <mxGeometry width="50" height="50" relative="1" as="geometry">
            <mxPoint x="970" y="910" as="sourcePoint" />
            <mxPoint x="970" y="140" as="targetPoint" />
          </mxGeometry>
        </mxCell>
        <mxCell id="Q6Dn07IOKBV6iHUPWCAA-58" value="" style="rounded=0;whiteSpace=wrap;html=1;" parent="1" vertex="1">
          <mxGeometry x="965" y="230" width="10" height="60" as="geometry" />
        </mxCell>
        <mxCell id="Q6Dn07IOKBV6iHUPWCAA-59" value="" style="endArrow=none;html=1;rounded=0;entryX=0.5;entryY=1;entryDx=0;entryDy=0;" parent="1" target="Q6Dn07IOKBV6iHUPWCAA-60" edge="1">
          <mxGeometry width="50" height="50" relative="1" as="geometry">
            <mxPoint x="850" y="910" as="sourcePoint" />
            <mxPoint x="850" y="140" as="targetPoint" />
          </mxGeometry>
        </mxCell>
        <mxCell id="Q6Dn07IOKBV6iHUPWCAA-60" value="" style="rounded=0;whiteSpace=wrap;html=1;" parent="1" vertex="1">
          <mxGeometry x="845" y="160" width="10" height="60" as="geometry" />
        </mxCell>
        <mxCell id="Q6Dn07IOKBV6iHUPWCAA-61" value="" style="endArrow=none;html=1;rounded=0;entryX=0.5;entryY=1;entryDx=0;entryDy=0;" parent="1" source="Q6Dn07IOKBV6iHUPWCAA-76" target="Q6Dn07IOKBV6iHUPWCAA-62" edge="1">
          <mxGeometry width="50" height="50" relative="1" as="geometry">
            <mxPoint x="715" y="940" as="sourcePoint" />
            <mxPoint x="715" y="110" as="targetPoint" />
          </mxGeometry>
        </mxCell>
        <mxCell id="Q6Dn07IOKBV6iHUPWCAA-62" value="" style="rounded=0;whiteSpace=wrap;html=1;" parent="1" vertex="1">
          <mxGeometry x="710" y="340" width="10" height="60" as="geometry" />
        </mxCell>
        <mxCell id="Q6Dn07IOKBV6iHUPWCAA-63" value="" style="endArrow=none;html=1;rounded=0;entryX=0.5;entryY=1;entryDx=0;entryDy=0;" parent="1" source="Q6Dn07IOKBV6iHUPWCAA-66" target="Q6Dn07IOKBV6iHUPWCAA-64" edge="1">
          <mxGeometry width="50" height="50" relative="1" as="geometry">
            <mxPoint x="715" y="940" as="sourcePoint" />
            <mxPoint x="715" y="400" as="targetPoint" />
          </mxGeometry>
        </mxCell>
        <mxCell id="Q6Dn07IOKBV6iHUPWCAA-64" value="" style="rounded=0;whiteSpace=wrap;html=1;" parent="1" vertex="1">
          <mxGeometry x="710" y="660" width="10" height="60" as="geometry" />
        </mxCell>
        <mxCell id="Q6Dn07IOKBV6iHUPWCAA-65" value="" style="endArrow=none;html=1;rounded=0;entryX=0.5;entryY=1;entryDx=0;entryDy=0;" parent="1" target="Q6Dn07IOKBV6iHUPWCAA-66" edge="1">
          <mxGeometry width="50" height="50" relative="1" as="geometry">
            <mxPoint x="715" y="940" as="sourcePoint" />
            <mxPoint x="715" y="720" as="targetPoint" />
          </mxGeometry>
        </mxCell>
        <mxCell id="Q6Dn07IOKBV6iHUPWCAA-66" value="" style="rounded=0;whiteSpace=wrap;html=1;" parent="1" vertex="1">
          <mxGeometry x="710" y="740" width="10" height="60" as="geometry" />
        </mxCell>
        <mxCell id="Q6Dn07IOKBV6iHUPWCAA-67" value="" style="endArrow=none;html=1;rounded=0;entryX=0.5;entryY=1;entryDx=0;entryDy=0;" parent="1" source="Q6Dn07IOKBV6iHUPWCAA-72" target="Q6Dn07IOKBV6iHUPWCAA-68" edge="1">
          <mxGeometry width="50" height="50" relative="1" as="geometry">
            <mxPoint x="360" y="970" as="sourcePoint" />
            <mxPoint x="360" y="140" as="targetPoint" />
          </mxGeometry>
        </mxCell>
        <mxCell id="Q6Dn07IOKBV6iHUPWCAA-68" value="" style="rounded=0;whiteSpace=wrap;html=1;" parent="1" vertex="1">
          <mxGeometry x="355" y="280" width="10" height="250" as="geometry" />
        </mxCell>
        <mxCell id="Q6Dn07IOKBV6iHUPWCAA-69" value="" style="endArrow=none;html=1;rounded=0;entryX=0.5;entryY=1;entryDx=0;entryDy=0;" parent="1" target="Q6Dn07IOKBV6iHUPWCAA-70" edge="1">
          <mxGeometry width="50" height="50" relative="1" as="geometry">
            <mxPoint x="539.66" y="940" as="sourcePoint" />
            <mxPoint x="539.66" y="110" as="targetPoint" />
          </mxGeometry>
        </mxCell>
        <mxCell id="Q6Dn07IOKBV6iHUPWCAA-70" value="" style="rounded=0;whiteSpace=wrap;html=1;" parent="1" vertex="1">
          <mxGeometry x="535" y="640" width="10" height="190" as="geometry" />
        </mxCell>
        <mxCell id="Q6Dn07IOKBV6iHUPWCAA-71" value="" style="endArrow=none;html=1;rounded=0;entryX=0.5;entryY=1;entryDx=0;entryDy=0;" parent="1" target="Q6Dn07IOKBV6iHUPWCAA-72" edge="1">
          <mxGeometry width="50" height="50" relative="1" as="geometry">
            <mxPoint x="360" y="940" as="sourcePoint" />
            <mxPoint x="360" y="520" as="targetPoint" />
          </mxGeometry>
        </mxCell>
        <mxCell id="Q6Dn07IOKBV6iHUPWCAA-72" value="" style="rounded=0;whiteSpace=wrap;html=1;" parent="1" vertex="1">
          <mxGeometry x="355" y="600" width="10" height="270" as="geometry" />
        </mxCell>
        <mxCell id="Q6Dn07IOKBV6iHUPWCAA-73" value="" style="endArrow=none;html=1;rounded=0;entryX=0.5;entryY=1;entryDx=0;entryDy=0;" parent="1" target="Q6Dn07IOKBV6iHUPWCAA-74" edge="1">
          <mxGeometry width="50" height="50" relative="1" as="geometry">
            <mxPoint x="180" y="940" as="sourcePoint" />
            <mxPoint x="180" y="110" as="targetPoint" />
          </mxGeometry>
        </mxCell>
        <mxCell id="Q6Dn07IOKBV6iHUPWCAA-74" value="" style="rounded=0;whiteSpace=wrap;html=1;" parent="1" vertex="1">
          <mxGeometry x="175" y="570" width="10" height="300" as="geometry" />
        </mxCell>
        <mxCell id="Q6Dn07IOKBV6iHUPWCAA-75" value="" style="endArrow=none;html=1;rounded=0;entryX=0.5;entryY=1;entryDx=0;entryDy=0;" parent="1" source="Q6Dn07IOKBV6iHUPWCAA-64" target="Q6Dn07IOKBV6iHUPWCAA-76" edge="1">
          <mxGeometry width="50" height="50" relative="1" as="geometry">
            <mxPoint x="715" y="690" as="sourcePoint" />
            <mxPoint x="715" y="430" as="targetPoint" />
          </mxGeometry>
        </mxCell>
        <mxCell id="Q6Dn07IOKBV6iHUPWCAA-76" value="" style="rounded=0;whiteSpace=wrap;html=1;" parent="1" vertex="1">
          <mxGeometry x="710" y="420" width="10" height="60" as="geometry" />
        </mxCell>
        <mxCell id="Q6Dn07IOKBV6iHUPWCAA-77" value="" style="endArrow=classic;html=1;rounded=0;exitX=1;exitY=0.25;exitDx=0;exitDy=0;entryX=0.067;entryY=0.104;entryDx=0;entryDy=0;entryPerimeter=0;" parent="1" source="Q6Dn07IOKBV6iHUPWCAA-68" target="Q6Dn07IOKBV6iHUPWCAA-79" edge="1">
          <mxGeometry width="50" height="50" relative="1" as="geometry">
            <mxPoint x="365" y="340" as="sourcePoint" />
            <mxPoint x="540" y="340" as="targetPoint" />
          </mxGeometry>
        </mxCell>
        <mxCell id="Q6Dn07IOKBV6iHUPWCAA-78" value="Post /2025/08/01/validate" style="edgeLabel;html=1;align=center;verticalAlign=middle;resizable=0;points=[];" parent="Q6Dn07IOKBV6iHUPWCAA-77" vertex="1" connectable="0">
          <mxGeometry x="-0.1111" y="4" relative="1" as="geometry">
            <mxPoint y="4" as="offset" />
          </mxGeometry>
        </mxCell>
        <mxCell id="Q6Dn07IOKBV6iHUPWCAA-79" value="" style="rounded=0;whiteSpace=wrap;html=1;" parent="1" vertex="1">
          <mxGeometry x="535" y="320" width="10" height="190" as="geometry" />
        </mxCell>
        <mxCell id="Q6Dn07IOKBV6iHUPWCAA-80" value="" style="endArrow=none;html=1;rounded=0;entryX=0.5;entryY=1;entryDx=0;entryDy=0;" parent="1" source="Q6Dn07IOKBV6iHUPWCAA-62" target="Q6Dn07IOKBV6iHUPWCAA-81" edge="1">
          <mxGeometry width="50" height="50" relative="1" as="geometry">
            <mxPoint x="715" y="370" as="sourcePoint" />
            <mxPoint x="715" y="140" as="targetPoint" />
          </mxGeometry>
        </mxCell>
        <mxCell id="Q6Dn07IOKBV6iHUPWCAA-81" value="" style="rounded=0;whiteSpace=wrap;html=1;" parent="1" vertex="1">
          <mxGeometry x="710" y="160" width="10" height="130" as="geometry" />
        </mxCell>
        <mxCell id="Q6Dn07IOKBV6iHUPWCAA-82" value="Læge" style="shape=umlActor;verticalLabelPosition=bottom;verticalAlign=top;html=1;outlineConnect=0;" parent="1" vertex="1">
          <mxGeometry x="40" y="70" width="20" height="40" as="geometry" />
        </mxCell>
        <mxCell id="UxIAdIcZRyHAeDXU_IEO-1" value="" style="endArrow=classic;html=1;rounded=0;dashed=1;exitX=0.1;exitY=0.97;exitDx=0;exitDy=0;exitPerimeter=0;" edge="1" parent="1" source="Q6Dn07IOKBV6iHUPWCAA-74">
          <mxGeometry width="50" height="50" relative="1" as="geometry">
            <mxPoint x="170" y="860" as="sourcePoint" />
            <mxPoint x="50" y="861" as="targetPoint" />
          </mxGeometry>
        </mxCell>
        <mxCell id="UxIAdIcZRyHAeDXU_IEO-2" value="OK" style="edgeLabel;html=1;align=center;verticalAlign=middle;resizable=0;points=[];" vertex="1" connectable="0" parent="UxIAdIcZRyHAeDXU_IEO-1">
          <mxGeometry x="0.0222" y="-1" relative="1" as="geometry">
            <mxPoint y="1" as="offset" />
          </mxGeometry>
        </mxCell>
        <mxCell id="UxIAdIcZRyHAeDXU_IEO-3" value="" style="endArrow=classic;html=1;rounded=0;dashed=1;exitX=0.1;exitY=0.97;exitDx=0;exitDy=0;exitPerimeter=0;" edge="1" parent="1">
          <mxGeometry width="50" height="50" relative="1" as="geometry">
            <mxPoint x="175" y="530" as="sourcePoint" />
            <mxPoint x="49" y="530" as="targetPoint" />
          </mxGeometry>
        </mxCell>
        <mxCell id="UxIAdIcZRyHAeDXU_IEO-4" value="Advarsel" style="edgeLabel;html=1;align=center;verticalAlign=middle;resizable=0;points=[];" vertex="1" connectable="0" parent="UxIAdIcZRyHAeDXU_IEO-3">
          <mxGeometry x="0.0222" y="-1" relative="1" as="geometry">
            <mxPoint y="1" as="offset" />
          </mxGeometry>
        </mxCell>
        <mxCell id="UxIAdIcZRyHAeDXU_IEO-6" value="" style="endArrow=none;html=1;rounded=0;entryX=0.5;entryY=1;entryDx=0;entryDy=0;" edge="1" parent="1" source="Q6Dn07IOKBV6iHUPWCAA-74" target="UxIAdIcZRyHAeDXU_IEO-5">
          <mxGeometry width="50" height="50" relative="1" as="geometry">
            <mxPoint x="180" y="540" as="sourcePoint" />
            <mxPoint x="180" y="130" as="targetPoint" />
          </mxGeometry>
        </mxCell>
        <mxCell id="UxIAdIcZRyHAeDXU_IEO-5" value="" style="rounded=0;whiteSpace=wrap;html=1;" vertex="1" parent="1">
          <mxGeometry x="175" y="250" width="10" height="300" as="geometry" />
        </mxCell>
        <mxCell id="UxIAdIcZRyHAeDXU_IEO-7" value="" style="endArrow=classic;html=1;rounded=0;dashed=1;entryX=0.933;entryY=0.917;entryDx=0;entryDy=0;entryPerimeter=0;" edge="1" parent="1">
          <mxGeometry width="50" height="50" relative="1" as="geometry">
            <mxPoint x="350" y="510" as="sourcePoint" />
            <mxPoint x="185" y="510" as="targetPoint" />
          </mxGeometry>
        </mxCell>
        <mxCell id="UxIAdIcZRyHAeDXU_IEO-8" value="400: Valideringsfejl" style="edgeLabel;html=1;align=center;verticalAlign=middle;resizable=0;points=[];" vertex="1" connectable="0" parent="UxIAdIcZRyHAeDXU_IEO-7">
          <mxGeometry x="0.1333" relative="1" as="geometry">
            <mxPoint x="12" as="offset" />
          </mxGeometry>
        </mxCell>
      </root>
    </mxGraphModel>
  </diagram>
</mxfile>
